<svg width="243" height="194" viewBox="0 0 243 194" fill="none" xmlns="http://www.w3.org/2000/svg">
<path fill-rule="evenodd" clip-rule="evenodd" d="M139.391 0.00259369C139.447 -0.000577562 139.607 -0.00826814 139.804 0.0357968C139.944 0.0670368 140.492 0.21145 140.801 0.795562C140.845 0.8638 140.888 0.939725 140.925 1.02408C140.962 1.11084 140.989 1.20092 141.01 1.29166C141.065 1.37992 141.116 1.47841 141.155 1.59048C142.13 3.20362 142.925 4.9321 143.518 6.71939C143.724 6.94613 143.864 7.23666 143.899 7.56412L144.932 17.1227C145.546 22.7996 147.169 28.3221 149.722 33.4294L153.2 40.3844L153.21 40.4049L153.222 40.4313L153.277 40.5612L153.287 40.5876L153.291 40.5963L156.28 48.8317L156.655 49.902C158.471 55.2687 159.398 60.8996 159.398 66.57V71.0221L170.26 66.3756C177.356 63.3389 185.041 61.92 192.754 62.2223L195.468 62.3278L196.207 62.362C203.834 62.7699 211.28 64.8547 218.015 68.4684L220.243 69.6618C225.821 72.655 230.807 76.6436 234.953 81.4274L241.548 89.0358C241.89 89.251 242.139 89.5996 242.221 90.0094C242.276 90.1879 242.299 90.3772 242.284 90.567C242.278 90.6384 242.266 90.7089 242.251 90.778V91.3044C242.251 92.1326 241.579 92.8043 240.751 92.8044L230.945 92.8053C227.414 92.8054 223.894 93.1952 220.448 93.9674L216.845 94.7751C212.706 95.7027 208.707 97.1748 204.955 99.153L183.343 110.548C183.339 110.551 183.335 110.553 183.331 110.555L173.553 115.625C172.873 115.977 172.185 116.313 171.49 116.635L179.781 119.714C184.14 121.332 188.197 123.672 191.781 126.633C194.943 129.247 197.701 132.315 199.965 135.736L201.579 138.174C202.036 138.865 201.847 139.795 201.157 140.253L200.323 140.805C199.991 141.025 199.585 141.104 199.195 141.025C198.978 140.981 198.776 140.888 198.601 140.758C198.593 140.757 198.583 140.758 198.575 140.757L195.904 140.343C193.476 139.968 191.022 139.779 188.566 139.779H186.282C183.49 139.779 180.703 140.023 177.953 140.507L167.397 142.367V165.074C167.397 168.375 166.953 171.663 166.078 174.845C164.335 181.184 160.931 186.928 156.233 191.497C156.208 191.558 156.181 191.62 156.147 191.678C156.057 191.836 155.939 191.973 155.803 192.087L155.636 192.485L155.637 192.486L155.445 192.948C155.293 193.316 155 193.608 154.633 193.76C154.265 193.912 153.851 193.911 153.483 193.758C145.336 190.369 138.421 184.579 133.657 177.168L133.203 176.445L132.233 174.87L123.409 162.035C118.601 155.042 112.025 149.448 104.351 145.824L98.8728 143.237L92.7566 146.091C92.4823 146.219 92.1772 146.259 91.8826 146.212C91.7825 146.242 91.6775 146.263 91.5691 146.272L88.5271 146.515C82.0193 147.036 75.471 146.241 69.2771 144.176L69.2508 144.168C69.1836 144.145 69.1178 144.118 69.0545 144.087L69.0506 144.085L54.491 137.29L43.7781 137.582C42.721 137.61 41.6683 137.756 40.6424 138.014C35.86 139.22 32.0233 142.785 30.4705 147.466L30.1062 148.565C29.5491 150.245 29.2645 152.005 29.2644 153.774V162.632C29.2643 163.461 28.5928 164.132 27.7644 164.132H26.7644C26.4082 164.132 26.0813 164.007 25.824 163.799C25.0267 164.015 24.2047 163.546 23.9861 162.749L22.6375 157.822C22.0583 155.706 21.6642 153.543 21.4617 151.358C21.0817 147.256 21.377 143.119 22.3377 139.113L22.3387 139.112L22.7088 137.57L22.8728 136.917C23.6733 133.861 24.9166 130.94 26.5613 128.246C26.6012 127.933 26.7375 127.637 26.9568 127.405L32.8269 121.19C34.6473 119.263 36.6133 117.477 38.7058 115.849L38.8475 115.739C42.8709 112.61 47.3352 110.088 52.0926 108.258C56.3041 106.639 60.7097 105.575 65.1961 105.093L66.0877 104.997L63.1551 102.34L54.7683 96.4206L41.826 87.7926C39.635 86.332 37.2584 85.1692 34.7605 84.3366C32.5937 83.6144 30.3493 83.146 28.074 82.9391L24.6043 82.6227C22.1479 82.3995 19.6747 82.4003 17.2176 82.6237C12.721 83.0326 8.32285 84.1847 4.20389 86.0338L2.88261 86.6276C2.14215 86.9601 1.27554 86.6419 0.921668 85.9176L0.647254 85.7282C0.320026 85.5019 0.0955963 85.1537 0.0242073 84.7624C-0.0469496 84.3712 0.040234 83.9673 0.266395 83.6403L4.40116 77.6676C7.74901 72.8315 11.8942 68.5979 16.658 65.1481L18.6277 63.7213L19.3582 63.2018C23.0295 60.6387 27.0184 58.5595 31.2244 57.0172L35.8035 55.3385C38.5269 54.34 41.338 53.5977 44.199 53.1208C47.5888 52.5558 51.0321 52.3658 54.4637 52.5563L58.5213 52.7819C58.656 52.7894 58.7856 52.8168 58.908 52.8571C59.087 52.822 59.2727 52.8181 59.4558 52.8503L63.7039 53.5973L64.7576 53.7956C67.2111 54.2852 69.6224 54.9722 71.9666 55.8512C74.8479 56.9317 77.6159 58.2963 80.2273 59.9245L90.1678 66.1227C90.2705 66.1868 90.3618 66.2627 90.4432 66.3454C90.5591 66.4153 90.6684 66.5014 90.7654 66.6051L92.2644 68.2077C92.2625 68.1851 92.2614 68.162 92.2596 68.1393C92.241 67.9124 92.2317 67.6913 92.2351 67.2545C92.2297 67.1992 92.2266 67.1425 92.2273 67.0856C92.2449 65.8326 92.2914 64.5785 92.367 63.3278C92.3773 62.7508 92.4542 61.5004 92.5144 60.8717C92.5292 60.711 92.592 60.1463 92.6092 60.0172L92.6219 59.9352C92.6224 59.9325 92.623 59.9286 92.6238 59.9245C92.6239 59.9194 92.6238 59.9147 92.6238 59.9118C92.6249 59.8689 92.6274 59.8306 92.6287 59.8122C92.6344 59.7344 92.6461 59.6161 92.659 59.4967C92.6863 59.2421 92.7302 58.8663 92.7762 58.4782C92.8276 58.0437 92.8906 57.5314 92.9383 57.1588C92.9386 57.0894 92.9426 57.0186 92.9529 56.9479C92.9837 56.7376 93.017 56.5256 93.0476 56.3268C93.0565 56.2697 93.0689 56.2133 93.0838 56.1588C93.1031 56.0289 93.1219 55.8979 93.1394 55.7926L93.1453 55.7575C93.1464 55.7515 93.1477 55.7443 93.1492 55.737L93.1629 55.611C93.1876 55.4358 93.3044 54.772 93.3348 54.5934C93.4699 53.7803 93.6153 52.9439 93.7869 52.112C93.7999 52.0491 93.8175 51.9876 93.8377 51.9284C93.8379 51.9272 93.8384 51.9256 93.8387 51.9245C93.8431 51.8873 93.8471 51.8459 93.8543 51.7995C93.8787 51.6427 93.9252 51.3982 94.0183 50.9743L94.0193 50.9674C94.0507 50.8278 94.0786 50.7167 94.1072 50.6217C94.1135 50.601 94.1235 50.5741 94.1326 50.5475C94.133 50.5426 94.1324 50.5375 94.1326 50.5338C94.1367 50.4843 94.1428 50.4439 94.1453 50.4274C94.1545 50.3655 94.1676 50.2991 94.1746 50.2653C94.2092 50.0974 94.2809 49.7868 94.3416 49.526C94.3683 49.4071 94.547 48.6671 94.6277 48.3434C94.6335 48.32 94.6419 48.2828 94.6609 48.192C94.6765 48.1175 94.6992 48.0083 94.7264 47.901C94.7461 47.8232 94.7665 47.7545 94.7791 47.7106C94.7922 47.665 94.8042 47.6242 94.8182 47.57L95.1023 46.5026C95.1997 46.1485 95.2999 45.794 95.4041 45.4381C95.4239 45.3705 95.4492 45.3054 95.4773 45.2428C95.4815 45.2278 95.4868 45.2121 95.491 45.1969C95.4966 45.1766 95.5029 45.1541 95.5076 45.1374C95.51 45.1288 95.5134 45.1175 95.5164 45.1071C95.5179 45.102 95.5206 45.0942 95.5232 45.0856C95.5247 45.0806 95.5315 45.0573 95.5408 45.0299L95.5457 45.0163C95.5508 45.0017 95.561 44.9709 95.575 44.9362C95.5794 44.9253 95.5891 44.9038 95.6014 44.8766C95.6215 44.807 95.6417 44.7364 95.6619 44.6667C95.6928 44.5599 95.7236 44.4524 95.7547 44.3454C95.7549 44.3442 95.7554 44.3425 95.7557 44.3415C95.772 44.2595 95.8024 44.1408 95.8221 44.0661C95.8477 43.9683 95.8961 43.7965 95.9412 43.6461C95.9448 43.629 95.9474 43.6175 95.948 43.6149L95.993 43.443C96.0996 43.0564 96.4765 41.9232 96.615 41.5036C96.625 41.458 96.6339 41.4219 96.6375 41.4088C96.644 41.3853 96.6505 41.3626 96.656 41.3444C96.6674 41.3072 96.6824 41.2625 96.699 41.2116C96.7328 41.1082 96.7848 40.9519 96.8641 40.7194L96.866 40.7135C96.8739 40.6907 96.883 40.666 96.8924 40.6413C96.8975 40.6276 96.9026 40.6121 96.909 40.5963C96.9135 40.5791 96.9192 40.5603 96.9246 40.5407C96.9562 40.4254 97.0078 40.2543 97.0867 40.07L97.0955 40.0504C97.1023 40.0351 97.118 40.0017 97.1394 39.9606C97.1612 39.8991 97.189 39.8204 97.2234 39.7213C97.2306 39.6914 97.2344 39.6694 97.2361 39.6628C97.2439 39.6346 97.252 39.6093 97.2576 39.5915C97.2691 39.5549 97.2817 39.5154 97.2937 39.4801C97.3417 39.3397 97.4207 39.1205 97.5047 38.8932C97.6024 38.6287 97.7237 38.3101 97.824 38.0514C97.8409 37.9903 97.8605 37.9288 97.8855 37.8688C97.9487 37.7179 97.9801 37.6372 97.9969 37.5924C98.0055 37.5693 98.0119 37.5523 98.0203 37.529C98.028 37.5077 98.0421 37.4689 98.0594 37.4254L98.0603 37.4225C98.1775 37.1291 98.3823 36.6457 98.4754 36.4176C98.524 36.2987 98.545 36.2399 98.575 36.1588C98.593 36.0902 98.614 36.021 98.6424 35.9538C98.7564 35.6839 98.8731 35.4153 98.9891 35.1501C98.9976 35.1305 99.0081 35.1115 99.0174 35.0924C99.0388 35.0398 99.0572 34.9934 99.0672 34.9704C99.0698 34.9643 99.073 34.9575 99.076 34.9508C99.0813 34.9388 99.0893 34.9211 99.0984 34.902C99.1019 34.8948 99.1073 34.8852 99.1131 34.8737C99.1181 34.8607 99.122 34.8474 99.1267 34.8356C99.1445 34.7915 99.166 34.7401 99.1912 34.6823L99.1922 34.6803C99.2872 34.4634 99.3397 34.3504 99.3836 34.2624C99.406 34.2174 99.4141 34.2002 99.4197 34.1891C99.4349 34.1496 99.4502 34.1108 99.4646 34.0768C99.4859 34.0269 99.5137 33.9634 99.5496 33.8835L99.5516 33.8776C99.6582 33.6426 99.7168 33.5155 99.741 33.4635C99.7443 33.4565 99.7478 33.4474 99.7517 33.4391C99.7531 33.4362 99.7656 33.4111 99.7801 33.3835C99.7841 33.3758 99.7959 33.3522 99.8123 33.3239C99.82 33.3106 99.8386 33.2804 99.8631 33.2438C99.8731 33.2291 99.8949 33.1989 99.9129 33.1745C99.9447 33.1059 99.9727 33.0441 99.993 32.9967C100.001 32.9777 100.005 32.9648 100.008 32.9586C100.043 32.8475 100.092 32.7404 100.152 32.6403C100.155 32.635 100.16 32.6287 100.164 32.6217L100.165 32.6188C100.167 32.6133 100.17 32.6076 100.172 32.6022C100.194 32.5303 100.22 32.458 100.254 32.3883C100.324 32.2436 100.372 32.1461 100.404 32.0836C100.416 32.0594 100.44 32.0126 100.466 31.9674C100.47 31.9603 100.476 31.9496 100.483 31.9372C100.5 31.8945 100.52 31.852 100.541 31.8102C100.589 31.7148 100.623 31.6448 100.649 31.5915C100.672 31.5444 100.699 31.4903 100.72 31.4489C100.742 31.4047 100.769 31.3538 100.804 31.2965C100.826 31.2424 100.853 31.1861 100.882 31.1305C100.917 31.0626 100.962 30.9859 101.018 30.9069C101.021 30.9012 101.023 30.895 101.025 30.8893C101.056 30.8124 101.095 30.737 101.108 30.7096C101.13 30.6659 101.155 30.6159 101.18 30.5661C101.233 30.4654 101.297 30.3431 101.361 30.2233C101.495 29.9716 101.619 29.7428 101.669 29.6481C101.708 29.5738 101.752 29.5032 101.802 29.4381C101.861 29.3096 101.933 29.1758 101.957 29.1315C102.023 29.0099 102.1 28.8719 102.16 28.7672C102.189 28.7165 102.219 28.6653 102.243 28.6256C102.247 28.6184 102.258 28.6019 102.27 28.5817C102.283 28.553 102.293 28.5288 102.301 28.5143C102.317 28.4816 102.335 28.4479 102.351 28.4167C102.416 28.2966 102.524 28.1051 102.693 27.8131C102.719 27.7693 102.748 27.7271 102.777 27.6862C102.793 27.6575 102.81 27.627 102.825 27.6012C102.868 27.5252 102.928 27.4214 102.979 27.3317C103.013 27.2736 103.042 27.2219 103.065 27.1813C103.082 27.1455 103.099 27.1089 103.119 27.0739C103.139 27.0381 103.16 27.0043 103.178 26.9743C103.186 26.9592 103.197 26.9402 103.21 26.9206C103.217 26.9095 103.23 26.8913 103.245 26.8688C103.249 26.8605 103.253 26.8513 103.258 26.8424C103.322 26.7187 103.407 26.5741 103.532 26.3825L103.544 26.3669C103.554 26.3508 103.567 26.3307 103.582 26.3102C103.591 26.2969 103.608 26.2743 103.628 26.2487C103.638 26.2356 103.652 26.2164 103.671 26.195C103.674 26.1911 103.678 26.1862 103.682 26.1813C103.688 26.1714 103.693 26.1609 103.699 26.151L103.736 26.0856L103.737 26.0846C103.738 26.0837 103.738 26.0818 103.739 26.0797C103.741 26.076 103.745 26.0668 103.75 26.0573C103.812 25.9254 103.881 25.8146 103.98 25.6598C104.001 25.6281 104.023 25.5977 104.046 25.568C104.286 25.1842 104.556 24.7723 104.81 24.3864C104.828 24.353 104.842 24.3255 104.852 24.3083C104.875 24.2689 104.897 24.2349 104.911 24.2145C104.926 24.1914 104.943 24.1666 104.96 24.1422L104.961 24.1413C105.021 24.0545 105.088 23.9629 105.141 23.8952C105.155 23.8778 105.174 23.8549 105.194 23.8307C105.204 23.8187 105.22 23.7997 105.239 23.779C105.246 23.7712 105.265 23.7534 105.289 23.7292C105.29 23.7277 105.291 23.7257 105.292 23.7243C105.299 23.7103 105.305 23.6974 105.31 23.6872C105.325 23.6607 105.338 23.6377 105.347 23.6217C105.357 23.6052 105.367 23.59 105.376 23.5768C105.392 23.5506 105.409 23.5227 105.427 23.4967L105.439 23.4782C105.456 23.4542 105.472 23.4323 105.486 23.4137C105.488 23.4089 105.491 23.4042 105.493 23.4001C105.509 23.3656 105.523 23.3374 105.532 23.321C105.549 23.2884 105.565 23.2616 105.574 23.2467C105.584 23.2301 105.593 23.214 105.601 23.2008L105.682 23.0836C105.804 22.9243 105.84 22.8697 105.846 22.859C105.852 22.851 105.848 22.8563 105.869 22.8219C105.892 22.7843 105.924 22.7336 105.969 22.6715L105.97 22.6686C105.993 22.6375 106.03 22.5889 106.043 22.5719C106.067 22.5408 106.097 22.5022 106.132 22.4567C106.201 22.3647 106.287 22.2484 106.371 22.1295C106.382 22.1133 106.396 22.0983 106.408 22.0827C106.436 22.0408 106.464 22.0007 106.478 21.9801C106.516 21.9272 106.541 21.8927 106.559 21.8678C106.564 21.8602 106.568 21.8516 106.573 21.8434C106.637 21.7365 106.718 21.6184 106.826 21.4938C106.835 21.4831 106.846 21.472 106.855 21.4616C106.873 21.4418 106.905 21.4117 106.945 21.3747C106.961 21.3512 106.979 21.3244 106.999 21.2956C107.002 21.2896 107.005 21.2838 107.008 21.279C107.019 21.2586 107.029 21.2412 107.037 21.2282C107.045 21.2151 107.052 21.2032 107.057 21.194C107.069 21.1762 107.079 21.1612 107.086 21.151L107.088 21.1481C107.104 21.1243 107.118 21.1038 107.121 21.0993C107.127 21.0914 107.132 21.0835 107.137 21.0778C107.145 21.0663 107.155 21.0536 107.164 21.0417C107.166 21.0392 107.168 21.0355 107.17 21.0329C107.173 21.0276 107.176 21.0226 107.179 21.0182C107.187 21.0043 107.195 20.9918 107.201 20.9821C107.213 20.9631 107.224 20.947 107.231 20.9362L107.396 20.7165C107.441 20.6619 107.491 20.6063 107.543 20.5544C107.564 20.525 107.585 20.498 107.599 20.4801C107.601 20.4777 107.603 20.4748 107.605 20.4723C107.62 20.4442 107.632 20.4225 107.637 20.4128C107.66 20.3754 107.68 20.3453 107.687 20.3346C107.715 20.293 107.751 20.2441 107.78 20.2047C107.781 20.2029 107.782 20.201 107.783 20.1999C107.804 20.1626 107.823 20.1321 107.834 20.1159C107.87 20.0601 107.909 20.0082 107.926 19.986C107.97 19.9265 108.027 19.8534 108.078 19.7887C108.146 19.702 108.296 19.5125 108.376 19.4245C108.39 19.4091 108.412 19.3861 108.436 19.362C108.447 19.3516 108.466 19.3326 108.489 19.3112C108.559 19.2253 108.665 19.0973 108.818 18.9128C108.826 18.9029 108.835 18.893 108.844 18.8835C108.849 18.8762 108.856 18.8675 108.863 18.859C108.867 18.8545 108.872 18.8476 108.878 18.8405C108.882 18.8352 108.893 18.8221 108.906 18.8063C108.938 18.768 108.963 18.7362 108.984 18.7106C109.017 18.6541 109.047 18.6122 109.054 18.6012C109.078 18.5679 109.099 18.5406 109.106 18.5319C109.124 18.5094 109.143 18.4874 109.155 18.4723C109.183 18.4387 109.219 18.3951 109.257 18.3503C109.334 18.2588 109.438 18.1393 109.54 18.0211C109.642 17.9029 109.747 17.7827 109.829 17.6891C109.869 17.6431 109.907 17.6002 109.936 17.567C109.951 17.5511 109.967 17.5326 109.982 17.5163C109.989 17.5084 110.002 17.4964 110.014 17.4831C110.018 17.4789 110.023 17.4722 110.03 17.4655C110.039 17.4568 110.071 17.4252 110.108 17.3913C110.119 17.3816 110.138 17.3636 110.162 17.3434C110.171 17.3306 110.176 17.3209 110.179 17.317C110.221 17.2569 110.259 17.2112 110.27 17.1979C110.297 17.1659 110.362 17.096 110.374 17.0827L110.387 17.068C110.746 16.6788 110.999 16.4066 111.157 16.2379C111.235 16.1551 111.295 16.0922 111.333 16.0524C111.342 16.0432 111.379 16.0042 111.416 15.9694C111.423 15.9625 111.436 15.9502 111.452 15.9362C111.463 15.9267 111.5 15.8935 111.551 15.8561C111.555 15.8529 111.561 15.8493 111.568 15.8444C111.631 15.7719 111.7 15.7048 111.776 15.6452C111.791 15.6288 111.809 15.6093 111.83 15.5885L111.84 15.5788L112.487 14.9381C112.518 14.8958 112.546 14.8636 112.56 14.8463C112.61 14.7876 112.66 14.7365 112.677 14.7204C112.725 14.672 112.786 14.6134 112.838 14.5641C112.893 14.5118 112.952 14.4552 113.004 14.4069C113.058 14.3565 113.1 14.3176 113.128 14.2917L113.221 14.2096C113.253 14.1845 113.285 14.1599 113.318 14.1374C113.367 14.0932 113.414 14.0494 113.457 14.0104C113.491 13.9795 113.526 13.9487 113.559 13.9186C113.589 13.8783 113.611 13.8483 113.62 13.8376C113.639 13.8149 113.655 13.7962 113.665 13.7858C113.684 13.7651 113.701 13.7481 113.71 13.7389C113.729 13.7197 113.748 13.7008 113.763 13.6862C113.813 13.6389 113.9 13.5618 113.922 13.5426C113.944 13.5229 114.033 13.4431 114.085 13.4001L114.151 13.3473C114.162 13.3393 114.193 13.315 114.234 13.2878C114.245 13.2804 114.273 13.2638 114.31 13.2419C115.409 12.2804 116.552 11.3682 117.73 10.5085C117.795 10.4612 117.863 10.4208 117.932 10.3854C117.961 10.3629 117.99 10.3373 118.022 10.3141L118.023 10.3151C118.108 10.2533 118.286 10.1318 118.459 10.0133C118.474 9.99811 118.485 9.98526 118.492 9.97916L118.622 9.87271C119.175 9.47097 119.751 9.09918 120.263 8.77017C120.277 8.75981 120.286 8.75069 120.291 8.74673C120.342 8.70855 120.392 8.67397 120.425 8.65298L120.427 8.65201C120.559 8.56582 120.657 8.5084 120.74 8.46158C120.77 8.44482 120.815 8.42084 120.824 8.41568C120.835 8.40987 120.841 8.40557 120.845 8.40298C120.912 8.36246 121.01 8.30253 121.151 8.21646C121.213 8.17884 121.278 8.13989 121.331 8.10806C121.339 8.1031 121.348 8.09746 121.356 8.09244C121.509 7.97121 121.667 7.88368 121.775 7.82681C121.783 7.82271 121.794 7.81667 121.804 7.81119C121.815 7.80574 121.831 7.79939 121.847 7.79166C121.864 7.78412 121.888 7.77295 121.917 7.76138L121.92 7.75943C121.954 7.73976 121.988 7.71998 122.019 7.70181C122.026 7.69702 122.032 7.69246 122.038 7.68814C122.056 7.67456 122.074 7.66244 122.089 7.65201C122.104 7.64163 122.118 7.63188 122.131 7.62369L122.132 7.62271C122.163 7.60259 122.191 7.58695 122.198 7.58267C122.21 7.57584 122.222 7.56905 122.23 7.56412C122.248 7.55413 122.269 7.54245 122.288 7.53189C122.327 7.51054 122.376 7.48367 122.426 7.4567C122.53 7.39962 122.639 7.34016 122.71 7.30045C122.85 7.22165 122.915 7.18249 122.94 7.16666C122.95 7.16041 122.955 7.15717 122.959 7.15494C122.96 7.15442 122.961 7.1537 122.963 7.15298C122.964 7.15234 122.965 7.15099 122.967 7.15005C122.97 7.14798 122.976 7.14377 122.983 7.13931C122.997 7.13035 123.027 7.11204 123.063 7.09146L123.075 7.08462C123.139 7.04922 123.219 7.00928 123.264 6.98599C123.32 6.95774 123.373 6.92964 123.428 6.90005C124.19 6.48151 125.404 5.8623 126.095 5.569C126.175 5.53514 126.257 5.50919 126.339 5.4899C126.77 5.29203 127.203 5.09818 127.639 4.91275C127.835 4.82979 128.031 4.7465 128.227 4.66275C128.312 4.62675 128.396 4.58948 128.481 4.55337C128.504 4.5391 128.523 4.52811 128.535 4.52115C128.584 4.49266 128.628 4.47176 128.638 4.46646C128.694 4.43915 128.769 4.40597 128.822 4.38248C128.929 4.33531 129.117 4.25444 129.238 4.2106L129.403 4.16177C129.805 3.99451 130.422 3.73616 130.628 3.64713C130.638 3.64167 130.649 3.63547 130.66 3.62955C130.756 3.5784 130.876 3.52085 131.043 3.44888C131.198 3.38182 131.303 3.34106 131.393 3.30826C131.489 3.27352 131.485 3.27596 131.521 3.26138L131.656 3.20377C131.668 3.19874 131.679 3.19396 131.69 3.18912C131.701 3.18442 131.713 3.17904 131.723 3.17447L131.812 3.13638C131.85 3.12127 131.888 3.10843 131.923 3.09732C131.927 3.09587 131.932 3.09382 131.936 3.09244C131.958 3.08193 131.978 3.07147 131.997 3.06314C132.07 3.03117 132.132 3.01005 132.155 3.00259C132.201 2.98757 132.259 2.97125 132.303 2.95865C132.306 2.95756 132.31 2.95584 132.314 2.95474C132.34 2.94499 132.364 2.93606 132.385 2.92838C132.401 2.92244 132.458 2.90065 132.519 2.88248C132.522 2.88164 132.526 2.88068 132.53 2.87955C132.551 2.87104 132.597 2.8522 132.672 2.82095C132.774 2.77851 132.899 2.72632 133.022 2.67349C133.146 2.62072 133.266 2.56901 133.359 2.52896C133.405 2.50942 133.446 2.4913 133.476 2.47818C133.491 2.47179 133.507 2.46513 133.52 2.45963C133.527 2.45698 133.536 2.45352 133.545 2.44986C133.547 2.44912 133.575 2.43818 133.607 2.42642L133.634 2.41666C133.637 2.41551 133.641 2.41409 133.645 2.41275C133.72 2.37939 133.798 2.34267 133.855 2.31802C134.001 2.25525 134.187 2.17543 134.373 2.09634C134.753 1.93479 135.128 1.77758 135.237 1.73111C135.323 1.69468 135.41 1.66684 135.498 1.64712C135.565 1.61902 135.631 1.59108 135.681 1.56998C135.765 1.53481 135.831 1.50595 135.873 1.48697C135.915 1.46349 135.957 1.43917 136.002 1.41959C136.036 1.40476 136.068 1.39129 136.095 1.37955C136.097 1.37882 136.1 1.37828 136.101 1.37759C136.136 1.35237 136.161 1.33549 136.17 1.32974C136.211 1.30252 136.249 1.28012 136.277 1.26431C136.363 1.21637 136.473 1.16549 136.595 1.11978C136.746 1.04783 136.988 0.944375 137.116 0.891266C137.212 0.851598 137.313 0.810837 137.381 0.78482C137.397 0.778509 137.424 0.768333 137.452 0.758453C137.464 0.754178 137.494 0.743845 137.53 0.733062C137.546 0.728304 137.582 0.718036 137.628 0.707672C137.636 0.703108 137.643 0.698308 137.649 0.694977C137.695 0.670057 137.738 0.647506 137.769 0.632477C137.834 0.600898 137.906 0.568575 137.968 0.541656C137.993 0.530572 138.021 0.519833 138.048 0.508453C138.056 0.502589 138.063 0.49743 138.067 0.494781C138.104 0.47093 138.136 0.453363 138.153 0.444L138.156 0.442047C138.195 0.420452 138.229 0.404436 138.244 0.397125C138.262 0.388497 138.279 0.380952 138.291 0.375641C138.312 0.365909 138.335 0.355795 138.352 0.348297L138.5 0.250641L138.632 0.172516C138.868 0.0482824 139.126 -0.00435666 139.38 0.00454681C139.383 0.00430244 139.388 0.00289922 139.391 0.00259369ZM126.359 135.943C124.22 137.105 121.419 137.779 118.411 137.779C116.662 137.779 114.992 137.549 113.485 137.136L107.699 139.617C107.695 139.619 107.69 139.621 107.685 139.623L107.674 139.628C107.667 139.63 107.66 139.633 107.653 139.635L103.843 141.159L106.06 142.206L106.836 142.58C114.817 146.511 121.66 152.429 126.706 159.768L135.538 172.616C135.565 172.652 135.589 172.691 135.612 172.73H135.614L136.61 174.348C140.276 180.305 145.451 185.156 151.579 188.432L145.727 166.768C144.614 162.648 142.956 158.693 140.798 155.011L138.228 150.628C136.605 147.859 134.709 145.26 132.567 142.87L126.359 135.943ZM155.136 121.997C153.576 122.304 151.998 122.529 150.41 122.662C145.797 123.046 141.289 124.249 137.099 126.216L130.33 129.393C130.382 129.681 130.411 129.977 130.411 130.279C130.411 131.424 130.027 132.45 129.403 133.344L135.546 140.2L135.977 140.688C138.121 143.142 140.03 145.793 141.678 148.604L144.248 152.988C146.586 156.977 148.383 161.261 149.589 165.724L155.26 186.716C158.515 182.999 160.903 178.582 162.222 173.785C163.002 170.947 163.397 168.017 163.397 165.074V142.026L161.474 135.713C160.532 132.615 159.278 129.62 157.733 126.776L155.136 121.997ZM65.6238 109.07C61.4823 109.514 57.4149 110.498 53.5271 111.993C49.1367 113.682 45.0177 116.007 41.3045 118.895L41.2967 118.902L41.1541 119.011L41.1531 119.01C39.2244 120.511 37.4137 122.16 35.7351 123.937L30.5486 129.427C28.711 132.197 27.3749 135.27 26.5994 138.503L26.5984 138.504L26.2273 140.045L26.2283 140.046C25.8856 141.475 25.6389 142.923 25.4861 144.381C25.9415 143.116 26.4802 141.876 27.1014 140.673L28.993 137.008C30.5704 133.953 33.0207 131.434 36.032 129.772C37.093 129.187 38.2139 128.713 39.3738 128.361L48.7264 125.522C53.6243 124.035 58.716 123.279 63.8348 123.279H82.4363C82.4759 123.279 82.516 123.281 82.5555 123.284L82.5799 123.286L82.6101 123.289L91.9236 124.221L92.66 124.299C96.3361 124.72 99.9582 125.531 103.464 126.721L106.525 127.759L91.7234 117.474C89.8351 116.162 87.8548 114.987 85.7986 113.959L80.1736 111.147C78.2548 110.188 76.2056 109.514 74.0926 109.149C73.0146 108.963 71.923 108.858 70.8289 108.835L70.3601 108.83H67.8601L65.6238 109.07ZM63.8357 127.279C59.1106 127.279 54.4099 127.977 49.8885 129.35L40.5359 132.189C39.6441 132.46 38.7815 132.824 37.9646 133.275C36.4101 134.133 35.0503 135.288 33.9568 136.666C35.6777 135.52 37.6025 134.656 39.6648 134.136C40.9743 133.806 42.3169 133.62 43.6678 133.584L54.8562 133.28L55.0105 133.283C55.1156 133.291 55.2181 133.31 55.3162 133.339C55.4651 133.358 55.6143 133.4 55.7576 133.466L70.6404 140.412C76.2959 142.283 82.2701 143.003 88.2088 142.528L91.2527 142.286L91.4012 142.281C91.4186 142.281 91.4365 142.283 91.4539 142.284L98.534 138.981C98.5433 138.976 98.5529 138.971 98.5623 138.966L98.6736 138.919L106.126 135.938L108.773 134.803C107.854 134.036 107.127 133.118 106.733 132.055L102.179 130.509C98.7276 129.338 95.1524 128.563 91.5252 128.2L82.3142 127.279H63.8357ZM165.529 118.965L159.98 120.75C159.705 120.838 159.427 120.923 159.15 121.006L161.248 124.868C162.922 127.949 164.279 131.193 165.301 134.548L166.492 138.464L177.258 136.567C180.237 136.042 183.257 135.779 186.282 135.779H188.566C190.861 135.779 193.154 135.932 195.428 136.235C193.633 133.824 191.554 131.635 189.233 129.717C185.994 127.041 182.327 124.926 178.388 123.464L166.586 119.082C166.401 119.013 166.234 118.908 166.092 118.777C165.904 118.84 165.717 118.905 165.529 118.965ZM118.411 125.779C117.533 125.779 116.686 125.846 115.885 125.97C115.728 125.995 115.572 125.993 115.423 125.969C115.292 126.045 115.147 126.103 114.991 126.137C114.244 126.3 113.55 126.513 112.925 126.765C112.775 126.826 112.619 126.859 112.464 126.87C112.355 126.979 112.23 127.073 112.09 127.145C111.531 127.431 111.057 127.744 110.673 128.069C110.568 128.158 110.452 128.229 110.332 128.285C110.275 128.403 110.205 128.516 110.118 128.617C109.697 129.107 109.488 129.581 109.43 130.02C109.416 130.128 109.39 130.233 109.353 130.334C109.391 130.428 109.423 130.526 109.441 130.629C109.613 131.595 110.588 132.772 112.63 133.667C112.84 133.759 113.022 133.897 113.166 134.064C113.388 134.031 113.617 134.048 113.834 134.116C115.173 134.534 116.734 134.779 118.411 134.779C121.097 134.779 123.457 134.153 125.092 133.219C126.769 132.261 127.411 131.165 127.411 130.279C127.411 129.958 127.33 129.627 127.154 129.281C127.101 129.176 127.062 129.065 127.035 128.953C126.94 128.881 126.851 128.798 126.773 128.702C126.648 128.548 126.507 128.396 126.349 128.249C126.335 128.235 126.322 128.219 126.308 128.205C126.283 128.185 126.257 128.166 126.232 128.144C125.59 127.579 124.696 127.056 123.584 126.645C123.436 126.591 123.301 126.512 123.179 126.418C123.026 126.423 122.87 126.405 122.717 126.361C121.439 125.993 119.975 125.779 118.411 125.779ZM192.598 66.2194C185.478 65.9402 178.384 67.2501 171.833 70.0534L159.129 75.4879L140.076 100.891L127.163 122.973L145.929 105.517L164.019 84.8395C163.232 83.2059 163.622 80.4565 165.166 77.8835C167.155 74.5686 170.303 72.8027 172.197 73.9391C174.091 75.0759 174.014 78.6847 172.025 81.9997C170.036 85.3145 166.888 87.0813 164.994 85.945C164.86 85.8648 164.739 85.7695 164.625 85.6657L146.665 106.196L146.647 106.215L146.629 106.232L127.055 124.439L137.857 118.078L150.751 109.647L174.647 90.7292L174.649 90.7272L174.735 90.6588C174.764 90.6374 174.795 90.6166 174.826 90.5973L174.849 90.5827L180.94 86.7497C186.036 83.5414 191.65 81.2417 197.533 79.9547L200.945 79.2086C203.769 78.5909 206.654 78.278 209.546 78.278C218.534 78.2781 227.258 81.2894 234.333 86.821L231.929 84.0475C228.102 79.6315 223.501 75.95 218.352 73.1872L216.125 71.9938C209.707 68.5502 202.589 66.6113 195.311 66.3258L192.598 66.2194ZM54.243 56.5504C51.1055 56.3762 47.9567 56.5485 44.8572 57.0651C42.2414 57.5011 39.6704 58.1805 37.1805 59.0934L32.6014 60.7721C28.4597 62.2908 24.5454 64.3743 20.9725 66.9616L19.0047 68.3864C16.7894 69.9906 14.7185 71.7789 12.8142 73.7292C15.4365 72.0654 18.2561 70.7219 21.2137 69.736C26.1311 68.0968 31.3316 67.4737 36.4969 67.904L38.2283 68.0475C44.3312 68.5562 50.2756 70.2606 55.7215 73.0612L60.0359 75.2799C63.6905 77.1595 67.109 79.4667 70.2205 82.151L91.2146 100.263L91.2957 100.336C91.3217 100.361 91.3477 100.386 91.3719 100.413L91.3807 100.423L107.979 118.411L98.909 105.796L98.8875 105.762L87.0516 86.234C87.0132 86.2465 86.9738 86.2593 86.9334 86.2682C85.493 86.5859 83.3128 84.4845 82.0642 81.5749C80.8157 78.665 80.9717 76.0475 82.4119 75.7292C83.8523 75.4118 86.0316 77.513 87.2801 80.4225C88.1948 82.5544 88.3549 84.5287 87.8094 85.5573L99.7723 105.294L106.223 114.267L103.681 109.391L103.67 109.368L103.66 109.342L97.5682 93.8034C97.5324 93.8141 97.4964 93.8246 97.4598 93.8327C96.0921 94.1349 94.6221 92.4884 94.1766 90.1559C93.7313 87.8234 94.4788 85.6866 95.8465 85.3844C97.2141 85.0826 98.6842 86.7296 99.1297 89.0622C99.4553 90.7683 99.1415 92.3683 98.4148 93.2233L104.575 108.942L110.333 119.983L112.913 123.572L109.969 109.262L105.312 92.9694C105.264 92.9095 105.218 92.8464 105.179 92.779L100.547 84.7506C98.717 81.5792 96.5304 78.6257 94.0301 75.9518L93.3523 75.2272C93.2504 75.1645 93.1776 75.1039 93.1375 75.068C92.9485 74.8989 92.8463 74.7168 92.8094 74.6461L87.9568 69.4577L78.1101 63.319C75.7244 61.8315 73.1958 60.5846 70.5633 59.5973C68.115 58.6793 65.5856 57.9893 63.0105 57.5368L58.7635 56.7907C58.7153 56.7822 58.668 56.7702 58.6219 56.7575C58.5175 56.7742 58.4095 56.7821 58.2996 56.776L54.243 56.5504ZM36.1648 71.8913C31.5392 71.5059 26.8826 72.0632 22.4793 73.5309C18.5826 74.8299 14.9521 76.82 11.7605 79.402C13.44 79.051 15.141 78.7942 16.8553 78.6383C19.5533 78.3931 22.2684 78.3942 24.9656 78.6393L28.4363 78.9547C31.018 79.1895 33.5653 79.7218 36.0252 80.5417C38.8607 81.4868 41.5575 82.807 44.0437 84.4645L57.0213 93.1149L65.5623 99.1432L65.5672 99.1471L65.6541 99.2116C65.6824 99.234 65.7105 99.2575 65.7371 99.2819L65.7527 99.2965L71.9197 104.88C72.8748 104.937 73.8277 105.044 74.7723 105.207C77.2713 105.638 79.6944 106.434 81.9627 107.568L87.5877 110.381C89.8158 111.495 91.9621 112.769 94.0076 114.19L106.925 123.167L88.5183 103.219L67.6082 85.1794C64.7359 82.7013 61.5792 80.5715 58.2058 78.8366L53.8933 76.6188C48.913 74.0576 43.4762 72.4999 37.8953 72.0348L36.1648 71.8913ZM133.927 6.37466C133.916 6.37852 133.874 6.39447 133.826 6.40982C133.811 6.41446 133.783 6.42334 133.749 6.43228C133.731 6.43688 133.704 6.44322 133.672 6.44986C133.643 6.45584 133.587 6.46732 133.516 6.47427C133.505 6.47529 133.492 6.47424 133.478 6.47525C133.476 6.47638 133.473 6.47808 133.47 6.47916C133.468 6.48049 133.467 6.48238 133.466 6.48306C133.4 6.52214 133.334 6.55448 133.32 6.56119C133.266 6.58739 133.185 6.62532 133.11 6.65591C133.104 6.65842 133.094 6.66045 133.086 6.66373C133.079 6.66982 133.073 6.67717 133.066 6.68228C132.938 6.78545 132.822 6.84526 132.768 6.87076L132.757 6.87564C132.673 6.91462 132.592 6.95124 132.526 6.97818C132.508 6.98573 132.48 6.99782 132.447 7.00943C132.43 7.0154 132.406 7.0233 132.378 7.03189C132.371 7.03396 132.361 7.03494 132.351 7.03775C132.345 7.04053 132.338 7.0449 132.331 7.04752C132.315 7.05379 132.278 7.06734 132.233 7.0817C132.211 7.08879 132.167 7.10306 132.111 7.11587C132.093 7.12008 132.016 7.13642 131.906 7.14615C131.75 7.21282 131.593 7.27981 131.437 7.34634C131.4 7.36753 131.371 7.38372 131.364 7.38736C131.344 7.39743 131.324 7.40713 131.31 7.41373C131.257 7.43867 131.185 7.47072 131.113 7.50259C131.038 7.53573 130.947 7.57414 130.848 7.61685C130.825 7.63306 130.81 7.64703 130.803 7.65201C130.722 7.70414 130.648 7.74115 130.602 7.76334C130.562 7.78297 130.517 7.79745 130.475 7.81509C130.395 7.87128 130.307 7.92099 130.214 7.96158C129.83 8.12784 129.653 8.2047 129.329 8.34537C129.283 8.37092 129.235 8.39568 129.185 8.41666C129.184 8.41698 129.181 8.41803 129.176 8.42056L129.136 8.43814C129.048 8.47501 128.982 8.5026 128.909 8.53384C128.881 8.54601 128.851 8.55577 128.822 8.56607C128.662 8.63936 128.545 8.69272 128.456 8.73013C128.396 8.75533 128.35 8.77444 128.316 8.78775L128.313 8.78873C127.842 8.99852 127.302 9.25189 126.83 9.48502C126.808 9.49801 126.777 9.51503 126.737 9.53677C126.642 9.58796 126.494 9.66227 126.219 9.79556C126.189 9.81025 126.157 9.82613 126.125 9.84048C126.107 9.84832 126.082 9.85718 126.054 9.8688C125.957 9.92942 125.862 9.98614 125.761 10.0329C125.735 10.0446 125.711 10.0544 125.69 10.0631C125.624 10.0987 125.57 10.1287 125.531 10.151C125.507 10.1645 125.488 10.1762 125.472 10.1852C125.466 10.189 125.455 10.1957 125.448 10.1999C125.444 10.2022 125.421 10.2136 125.398 10.2262C125.187 10.341 124.904 10.4984 124.664 10.6335C124.636 10.6526 124.613 10.6674 124.603 10.6735C124.555 10.7034 124.498 10.7349 124.457 10.7575L124.45 10.7624C124.352 10.8155 124.12 10.9292 123.854 11.0758C123.813 11.1053 123.77 11.1342 123.724 11.1598C123.706 11.1701 123.688 11.1808 123.67 11.1911C123.659 11.1975 123.643 11.2063 123.623 11.2184C123.537 11.2934 123.443 11.3613 123.339 11.4167C123.336 11.4184 123.325 11.4243 123.306 11.4352C123.283 11.449 123.252 11.4679 123.215 11.4909C123.138 11.5374 123.042 11.5976 122.931 11.6676C122.71 11.8077 122.442 11.98 122.179 12.152C121.916 12.3237 121.659 12.4926 121.461 12.6247C121.244 12.7693 121.144 12.8386 121.143 12.8385C121.114 12.8607 121.083 12.8821 121.052 12.902C121.045 12.9065 121.034 12.9129 121.023 12.9196C121.022 12.9203 121.019 12.9205 121.017 12.9215C120.476 13.3113 119.742 13.8292 119.214 14.2487C119.196 14.2625 119.178 14.2767 119.16 14.2897C119.142 14.303 119.122 14.3168 119.103 14.3297C119.094 14.3363 119.081 14.3445 119.068 14.3532C119.06 14.3584 119.047 14.3666 119.031 14.3766C118.99 14.4077 118.954 14.4382 118.926 14.4586C118.89 14.4845 118.853 14.5121 118.819 14.5368C118.784 14.5623 118.75 14.5854 118.72 14.6081C118.694 14.6267 118.673 14.6424 118.656 14.6549C118.609 14.703 118.559 14.7504 118.504 14.7926C118.447 14.8359 118.408 14.8657 118.378 14.8883C118.359 14.9022 118.348 14.91 118.341 14.9157C118.323 14.9329 118.306 14.9519 118.288 14.9684C118.094 15.1418 117.813 15.3632 117.612 15.5172C117.578 15.5438 117.543 15.569 117.511 15.5934C117.418 15.7005 117.316 15.7908 117.301 15.8044C117.239 15.8583 117.172 15.9042 117.104 15.9469C117.054 15.9894 117.029 16.0163 117.042 16.0026C116.952 16.1013 116.849 16.1879 116.736 16.2594C116.732 16.2622 116.723 16.2654 116.714 16.2711C116.63 16.3457 116.541 16.4264 116.478 16.4831C116.472 16.4902 116.466 16.4978 116.461 16.5036C116.444 16.5216 116.429 16.5374 116.417 16.5495C116.397 16.5699 116.377 16.5877 116.361 16.6022C116.222 16.7336 116.102 16.843 116.012 16.9186C116.007 16.9225 116 16.926 115.995 16.9303C115.993 16.9326 115.991 16.9358 115.988 16.9381C115.892 17.0348 115.773 17.1478 115.703 17.2116C115.672 17.2395 115.584 17.3211 115.512 17.3776C115.5 17.3869 115.456 17.4208 115.399 17.4577C115.387 17.4656 115.358 17.4832 115.318 17.5055C115.295 17.5279 115.271 17.5502 115.248 17.5729C115.222 17.6094 115.194 17.6448 115.164 17.6794C115.108 17.765 115.044 17.8473 114.969 17.9225C114.799 18.0926 114.683 18.2062 114.607 18.2809C114.57 18.3176 114.537 18.3499 114.51 18.3756C114.496 18.3882 114.48 18.4033 114.463 18.4186C114.458 18.4227 114.448 18.4294 114.437 18.4391C114.429 18.4482 114.418 18.4611 114.406 18.4733C114.4 18.4795 114.392 18.4878 114.383 18.4967C114.374 18.505 114.358 18.5196 114.34 18.5368C114.277 18.5945 114.213 18.6537 114.162 18.6969C114.148 18.7085 114.122 18.73 114.092 18.7536C114.076 18.7653 114.049 18.7865 114.013 18.8102C114.01 18.8127 114.002 18.8169 113.993 18.8229C113.753 19.0693 113.576 19.256 113.508 19.3385C113.49 19.3601 113.471 19.3815 113.452 19.402C113.433 19.4222 113.41 19.4463 113.383 19.4723C113.375 19.4794 113.366 19.4863 113.358 19.4938C113.348 19.5048 113.337 19.5173 113.325 19.5309C113.284 19.5778 113.234 19.6345 113.18 19.696C113.145 19.7366 113.105 19.78 113.066 19.8239C113.059 19.8343 113.053 19.844 113.049 19.8503C112.99 19.9285 112.886 20.0464 112.845 20.0934C112.696 20.2657 112.528 20.4554 112.453 20.5426L112.444 20.5524C112.315 20.7006 112.237 20.7843 112.171 20.8522C112.106 20.9187 112.124 20.8986 112.107 20.9176L112.106 20.9186C111.94 21.1062 111.729 21.3697 111.499 21.6588C111.325 21.8776 111.126 22.1246 110.96 22.3219C110.949 22.3384 110.943 22.3527 110.938 22.359C110.895 22.4209 110.843 22.4855 110.807 22.5309C110.732 22.6258 110.62 22.7634 110.532 22.8727L110.531 22.8737C110.402 23.0332 110.284 23.1819 110.217 23.2731L110.216 23.2741C110.213 23.2773 110.21 23.2806 110.208 23.2838C110.165 23.3755 110.114 23.4652 110.052 23.5495C109.763 23.9385 109.466 24.3598 109.197 24.7458L109.198 24.7467C109.192 24.7556 109.184 24.7661 109.177 24.777C109.169 24.7877 109.158 24.8019 109.145 24.818C109.14 24.8247 109.132 24.8324 109.124 24.8424C109.103 24.8751 109.085 24.9107 109.062 24.944C108.93 25.1389 108.84 25.2688 108.78 25.3542C108.75 25.3962 108.722 25.4356 108.697 25.4694C108.684 25.4863 108.667 25.5084 108.648 25.5319C108.638 25.545 108.613 25.5701 108.584 25.6032C108.582 25.6072 108.581 25.6122 108.579 25.6159C108.567 25.64 108.555 25.6606 108.546 25.6764C108.537 25.6925 108.528 25.7072 108.521 25.7184C108.515 25.7279 108.509 25.7374 108.503 25.7467C108.407 25.8946 108.094 26.3536 107.966 26.5426C107.964 26.5454 107.962 26.5487 107.961 26.5514C107.945 26.581 107.929 26.6098 107.912 26.6364C107.905 26.647 107.897 26.6581 107.89 26.6686C107.859 26.7165 107.826 26.7593 107.796 26.8004C107.758 26.8718 107.715 26.9412 107.666 27.0055C107.649 27.0277 107.627 27.0559 107.604 27.0836C107.595 27.0949 107.579 27.112 107.561 27.1325C107.516 27.2037 107.469 27.2768 107.423 27.3503C107.357 27.4542 107.293 27.5579 107.233 27.6549C107.226 27.6734 107.22 27.6894 107.216 27.6999C107.193 27.7491 107.172 27.7881 107.169 27.7946C107.147 27.8345 107.122 27.8784 107.11 27.8981C107.093 27.9276 107.072 27.9633 107.049 28.0016C106.957 28.1552 106.814 28.3911 106.69 28.5934C106.645 28.667 106.6 28.7374 106.561 28.7995C106.561 28.8012 106.561 28.8036 106.56 28.8053C106.541 28.8535 106.524 28.8912 106.518 28.903C106.51 28.9199 106.502 28.9349 106.498 28.944C106.489 28.9622 106.48 28.979 106.473 28.9909C106.46 29.0158 106.445 29.0435 106.43 29.069C106.401 29.1212 106.366 29.1847 106.331 29.2458C106.296 29.306 106.258 29.3722 106.224 29.4274C106.213 29.4461 106.198 29.4684 106.183 29.4919C106.179 29.4996 106.177 29.5065 106.176 29.5094C106.17 29.5191 106.164 29.5284 106.161 29.5348C106.153 29.5489 106.143 29.5677 106.133 29.5866C106.111 29.6253 106.081 29.6783 106.047 29.7389C105.978 29.8611 105.887 30.0208 105.801 30.1715C105.716 30.3191 105.629 30.4699 105.57 30.569C105.56 30.5865 105.497 30.6924 105.434 30.777C105.43 30.7828 105.422 30.7919 105.413 30.8034C105.403 30.8183 105.388 30.8409 105.37 30.8659C105.366 30.8711 105.36 30.8781 105.353 30.8864C105.351 30.8906 105.35 30.8958 105.347 30.9001C105.343 30.9081 105.339 30.9165 105.335 30.9245C105.334 30.9261 105.332 30.9277 105.331 30.9294C105.325 30.941 105.322 30.954 105.316 30.9655C105.31 30.9787 105.3 30.9942 105.291 31.0114C105.288 31.0159 105.286 31.0215 105.284 31.026C105.167 31.2525 104.903 31.7485 104.811 31.9215C104.801 31.9486 104.789 31.9746 104.778 31.9987C104.756 32.0488 104.732 32.0981 104.708 32.1452C104.705 32.1511 104.702 32.1579 104.699 32.1637C104.551 32.445 103.886 33.7358 103.71 34.1003L103.692 34.1442C103.685 34.1612 103.677 34.1783 103.669 34.195C103.656 34.2227 103.547 34.4461 103.447 34.654C103.395 34.7633 103.342 34.874 103.299 34.9645C103.277 35.0097 103.259 35.0487 103.245 35.0788C103.232 35.1064 103.226 35.1196 103.225 35.1217C103.222 35.13 103.218 35.1387 103.214 35.1471C103.171 35.2412 103.118 35.3284 103.059 35.4088C103.033 35.4654 103.007 35.5224 102.982 35.5758C102.936 35.6739 102.893 35.7656 102.857 35.8434C102.849 35.8707 102.841 35.8934 102.836 35.9079C102.828 35.9277 102.822 35.945 102.817 35.9567C102.814 35.9637 102.811 35.9712 102.808 35.9782C102.805 35.9855 102.801 35.9934 102.798 36.0016C102.784 36.0586 102.769 36.1162 102.749 36.1725C102.702 36.3038 102.572 36.6024 102.49 36.7868C102.443 36.8928 102.395 36.9991 102.36 37.0749C102.348 37.1001 102.319 37.1632 102.289 37.2194C102.285 37.2266 102.271 37.2482 102.254 37.278C102.25 37.2858 102.246 37.293 102.244 37.2965L102.242 37.3014L102.241 37.3034L102.239 37.3063C102.232 37.3225 102.216 37.3569 102.189 37.4225C102.188 37.4251 102.187 37.4288 102.186 37.4313C102.182 37.4515 102.181 37.4662 102.179 37.4713C102.165 37.525 102.15 37.5672 102.147 37.5749C102.128 37.6302 102.099 37.7019 102.094 37.7155C102.034 37.8631 101.927 38.1237 101.85 38.321C101.845 38.3398 101.839 38.3596 101.833 38.3795C101.797 38.4884 101.744 38.6261 101.658 38.8317C101.634 38.8887 101.606 38.9433 101.576 38.9958C101.534 39.106 101.496 39.2055 101.476 39.2565C101.471 39.2717 101.464 39.2873 101.458 39.3024C101.448 39.326 101.436 39.3481 101.426 39.3698C101.413 39.4095 101.398 39.4487 101.385 39.485C101.293 39.7306 101.238 39.8808 101.205 39.9684C101.189 40.0097 101.174 40.0482 101.162 40.0778C101.16 40.0816 101.152 40.0985 101.142 40.1217C101.134 40.1534 101.13 40.1751 101.13 40.1764C101.119 40.2115 101.108 40.2448 101.103 40.2604C101.079 40.3336 101.036 40.4572 100.995 40.5739C100.899 40.8455 100.821 41.0622 100.815 41.0768C100.798 41.1322 100.777 41.1861 100.755 41.2379C100.736 41.2954 100.71 41.3744 100.677 41.4831C100.632 41.6273 100.573 41.8127 100.512 41.984L100.509 41.9967C100.488 42.0521 100.445 42.155 100.431 42.1872C100.419 42.2163 100.406 42.2485 100.395 42.2741C100.39 42.2859 100.383 42.3013 100.377 42.3161C100.374 42.3227 100.367 42.3377 100.359 42.3542C100.356 42.3619 100.347 42.3801 100.336 42.402C100.33 42.4129 100.319 42.435 100.304 42.4616L100.302 42.4635C100.3 42.472 100.3 42.4794 100.299 42.484C100.289 42.5322 100.278 42.5721 100.274 42.5866C100.265 42.6221 100.254 42.6576 100.248 42.6794C100.233 42.7267 100.215 42.7859 100.202 42.8268C100.195 42.8493 100.188 42.8687 100.183 42.8844C100.179 42.8989 100.177 42.9054 100.177 42.9059C100.133 43.0556 100.088 43.1968 100.042 43.3444C100.04 43.357 100.041 43.3675 100.04 43.3737C100.028 43.4606 100.009 43.5363 100.009 43.5397C100.003 43.5648 99.9967 43.5906 99.991 43.6129L99.9881 43.6237C99.9791 43.6576 99.9671 43.698 99.9656 43.7028C99.9599 43.7217 99.9523 43.7463 99.9441 43.7731C99.9277 43.827 99.9052 43.9014 99.8807 43.9821C99.8304 44.1472 99.7691 44.3495 99.7176 44.5231L99.7166 44.5251C99.6951 44.5973 99.674 44.6661 99.656 44.7262C99.647 44.779 99.6402 44.8175 99.6394 44.821C99.6193 44.9098 99.5844 45.0346 99.5506 45.1383L99.5476 45.1471C99.5281 45.2057 99.5052 45.2578 99.4842 45.3034C99.4837 45.3166 99.4846 45.3278 99.4842 45.3356C99.4813 45.3859 99.4766 45.427 99.4734 45.4508C99.4671 45.4979 99.4594 45.5359 99.4558 45.5534C99.4483 45.5905 99.4409 45.6222 99.4373 45.6364C99.4292 45.6684 99.4203 45.7005 99.4139 45.7233C99.4001 45.7723 99.3828 45.8321 99.367 45.8854C99.3514 45.9379 99.333 46.0004 99.3201 46.0436C99.3184 46.0493 99.3158 46.0549 99.3142 46.0602C99.3128 46.0685 99.3126 46.077 99.3113 46.0836C99.3012 46.1358 99.2903 46.1798 99.284 46.2038C99.2768 46.2309 99.2694 46.2575 99.2625 46.2809C99.2566 46.301 99.2449 46.3363 99.2439 46.3395C99.2343 46.371 99.2229 46.4085 99.2088 46.4479C99.1981 46.4776 99.1801 46.5203 99.158 46.57C99.1542 46.5833 99.15 46.5969 99.1463 46.61C99.1407 46.6295 99.1065 46.7525 99.0652 46.8551C99.0569 46.8759 99.0401 46.9164 99.0164 46.9645C99.0133 46.9706 99.0041 46.9871 98.991 47.0114C98.9892 47.019 98.9878 47.0265 98.9861 47.0329C98.983 47.0451 98.9798 47.0579 98.9764 47.07C98.9711 47.0885 98.9485 47.1678 98.9168 47.2809C98.9124 47.3335 98.9064 47.3871 98.8963 47.4401C98.8894 47.4759 98.8757 47.5194 98.8641 47.568L98.865 47.569C98.8645 47.5707 98.8636 47.5731 98.8631 47.5749C98.8325 47.7013 98.7913 47.8579 98.7566 47.9821C98.7533 48.0088 98.752 48.029 98.7508 48.0368C98.7474 48.0578 98.7441 48.0757 98.742 48.0866C98.7377 48.1086 98.7331 48.1291 98.7303 48.1422C98.7112 48.2298 98.6687 48.4022 98.6316 48.5524C98.6298 48.5599 98.6267 48.5674 98.6248 48.5749C98.6218 48.589 98.6195 48.6037 98.616 48.6178C98.5858 48.7401 98.5542 48.8676 98.5291 48.9674C98.5166 49.0171 98.478 49.1728 98.45 49.2565C98.438 49.3099 98.4274 49.3642 98.4168 49.4088C98.3906 49.5191 98.3586 49.6509 98.3279 49.776C98.2967 49.9036 98.2668 50.0245 98.243 50.1227C98.2411 50.1304 98.2388 50.1381 98.2371 50.1452C98.2356 50.1587 98.235 50.1693 98.2342 50.1754C98.2246 50.2473 98.2105 50.3112 98.2039 50.3415C98.1953 50.381 98.1851 50.4253 98.1736 50.4723C98.1574 50.5387 98.1349 50.6245 98.1062 50.734C98.1019 50.7595 98.0983 50.7857 98.0926 50.8112C97.9999 51.2217 97.9108 51.6303 97.826 52.0368C97.8244 52.0439 97.8217 52.0512 97.8201 52.0583C97.8194 52.0626 97.8188 52.0673 97.8182 52.071C97.8111 52.1099 97.8019 52.1489 97.7918 52.1872C97.7974 52.1661 97.7705 52.2947 97.7078 52.6139C97.6529 52.8933 97.5821 53.2588 97.5105 53.6364C97.3625 54.417 97.2236 55.1779 97.1941 55.3942C97.1923 55.408 97.1905 55.4225 97.1883 55.4362C97.1625 55.593 97.0966 56.063 97.0887 56.1198C97.0876 56.1271 97.0869 56.135 97.0857 56.1422C97.0521 56.3575 96.957 56.9754 96.9226 57.2155C96.9224 57.2255 96.923 57.2351 96.9226 57.2428C96.9211 57.2753 96.9187 57.3032 96.9168 57.3229C96.9131 57.3611 96.9083 57.3951 96.9051 57.4176C96.9033 57.43 96.9016 57.4447 96.8992 57.4596C96.8968 57.4742 96.8935 57.4934 96.8894 57.5143C96.8874 57.5249 96.8846 57.5378 96.8816 57.5514C96.8787 57.5649 96.8746 57.5817 96.8699 57.6003C96.8692 57.6026 96.8676 57.6056 96.867 57.6081C96.8605 57.6573 96.8529 57.7163 96.8445 57.7829C96.8221 57.9603 96.7953 58.1844 96.7674 58.4157C96.7123 58.8713 96.6528 59.3685 96.6297 59.5563C96.617 59.6585 96.5938 59.7572 96.5623 59.8512C96.5549 59.915 96.5486 59.9832 96.5389 60.0524L96.5398 60.0534C96.5341 60.1064 96.5263 60.194 96.5154 60.3053C96.5264 60.4225 96.5227 60.5196 96.5213 60.5485C96.5171 60.6356 96.5067 60.7321 96.4959 60.8219C96.4927 60.85 96.4763 60.9831 96.4383 61.1286C96.4276 61.2467 96.4156 61.3678 96.4051 61.4879C96.3783 61.7919 96.3538 62.0841 96.3367 62.3073C96.3353 62.3252 96.334 62.3433 96.3328 62.36C96.3335 62.3697 96.3344 62.3779 96.3348 62.3835C96.3375 62.4312 96.3368 62.4712 96.3367 62.487C96.3366 62.5245 96.3359 62.5629 96.3348 62.5924C96.3332 62.6342 96.3315 62.6766 96.3289 62.7165C96.3264 62.7536 96.3212 62.8097 96.3123 62.8727C96.3073 62.9078 96.2972 62.9605 96.282 63.0241L96.283 63.0251C96.2852 63.0018 96.2855 62.9918 96.283 63.0329C96.2814 63.0592 96.2797 63.0962 96.2771 63.1403C96.2767 63.1481 96.2757 63.1566 96.2752 63.1647C96.2783 63.1883 96.283 63.2121 96.285 63.236C96.2899 63.2965 96.2898 63.3472 96.2898 63.3542C96.2899 63.3706 96.29 63.3858 96.2898 63.3942C96.2896 63.4115 96.2893 63.429 96.2889 63.442C96.288 63.4694 96.2863 63.5025 96.285 63.5358C96.2821 63.6043 96.2782 63.6917 96.2742 63.776C96.2667 63.9375 96.2577 64.1197 96.2557 64.153C96.2524 64.2051 96.2455 64.2568 96.2371 64.3073C96.234 64.3479 96.234 64.3859 96.2303 64.4206C96.2274 64.4466 96.2237 64.4713 96.2215 64.4889C96.22 64.5701 96.2165 64.8167 96.2 65.0729L96.1736 65.3747C96.1715 65.3931 96.1681 65.4181 96.1639 65.446C96.1631 65.4509 96.1619 65.4568 96.1609 65.4626C96.159 65.5459 96.153 65.652 96.1375 65.7692C96.1373 65.8366 96.134 65.9782 96.1316 66.1305C96.1555 66.2391 96.1689 66.3526 96.1678 66.4684C96.1672 66.5298 96.1673 66.5572 96.1668 66.6344C96.1658 66.7654 96.1456 66.8924 96.1131 67.0133C96.1148 67.0884 96.1173 67.1733 96.117 67.2467C96.1166 67.3476 96.115 67.4599 96.1121 67.5495C96.1114 67.5702 96.1087 67.5979 96.1072 67.6276C96.1091 67.6749 96.1114 67.7243 96.1121 67.7702C96.1136 67.8751 96.1136 68.0002 96.1131 68.1208L96.1111 68.7731V68.7799C96.1118 68.8675 96.1155 69.0135 96.1199 69.1608L96.1297 69.4987V69.5065L96.1189 69.7213C96.1185 69.7252 96.1174 69.7294 96.117 69.7331C96.1173 69.7439 96.1174 69.7571 96.118 69.7721C96.1199 69.8267 96.1231 69.9028 96.1258 69.9899C96.131 70.1625 96.1361 70.3917 96.1355 70.612V70.6149C96.1351 70.7123 96.1254 70.8596 96.1004 70.9997C96.1016 71.064 96.1033 71.1183 96.1033 71.1618L96.0916 71.4108C96.0903 71.4214 96.0853 71.4396 96.0818 71.4635C96.0825 71.484 96.0832 71.5038 96.0838 71.5211C96.0843 71.5387 96.0853 71.5566 96.0857 71.57C96.0859 71.5765 96.0855 71.5855 96.0857 71.5934C96.0859 71.5974 96.0866 71.6039 96.0867 71.611V71.6735C96.0865 71.6812 96.0842 71.7635 96.0701 71.861C96.0658 71.8909 96.0569 71.9489 96.0389 72.0192C96.035 72.034 96.025 72.0643 96.0115 72.1061C96.0112 72.1138 96.0119 72.1225 96.0115 72.1305C96.0101 72.1557 96.0054 72.1809 96.0027 72.2057L96.9519 73.2204C99.6607 76.1173 102.029 79.3157 104.011 82.7506L108.085 89.8122C108.437 89.9958 108.717 90.3171 108.835 90.7292L113.835 108.229L113.852 108.296L113.861 108.333L113.87 108.376L116.846 122.84C116.917 122.835 116.988 122.83 117.058 122.825L114.666 95.5641L109.468 68.5866C107.695 68.2041 105.766 66.2073 104.684 63.4088C103.291 59.8029 103.832 56.2337 105.892 55.4372C107.953 54.641 110.753 56.919 112.146 60.5251C113.539 64.1312 112.999 67.7006 110.938 68.4967C110.793 68.5529 110.643 68.5907 110.491 68.6169L115.657 95.4264L115.659 95.4518L118.057 122.782C118.175 122.78 118.293 122.779 118.411 122.779C118.434 122.779 118.457 122.78 118.479 122.78L121.912 51.2233L121.911 36.2536C121.911 36.1984 121.914 36.1424 121.92 36.0876L121.923 36.0612L123.275 22.985C123.395 21.8238 123.714 20.6912 124.216 19.6374L124.304 19.4499L124.305 19.4479C126.669 14.4856 129.965 10.0391 133.999 6.34439C133.973 6.35492 133.948 6.36643 133.927 6.37466ZM139.388 7.04654C134.496 10.7714 130.563 15.6125 127.918 21.1667L127.916 21.1706L127.826 21.3551L127.827 21.3561C127.559 21.9183 127.377 22.5182 127.287 23.1335L127.254 23.3981L125.911 36.3786V51.2907C125.911 51.3186 125.909 51.3468 125.907 51.3747L125.908 51.3756L122.618 119.955L127.21 96.9635L129.797 69.612C128.202 68.7472 126.912 66.2885 126.66 63.2985C126.335 59.4463 127.856 56.1737 130.057 55.9879C132.259 55.8025 134.306 58.7753 134.631 62.6276C134.955 66.4795 133.434 69.7525 131.233 69.9381C131.078 69.9512 130.923 69.9459 130.77 69.9284L128.202 97.0846L128.2 97.109L128.195 97.1344L123.296 121.665L124.322 119.91L131.061 101.586L131.076 101.548L140.613 80.8004C140.581 80.7757 140.548 80.7498 140.518 80.7213C139.448 79.7065 139.966 76.7232 141.676 74.0583C143.385 71.3932 145.64 70.0557 146.711 71.07C147.781 72.0848 147.263 75.0672 145.553 77.7321C144.301 79.6846 142.756 80.9236 141.598 81.0485L131.961 102.019L127.175 115.032L136.684 98.7702C136.722 98.7031 136.764 98.6383 136.811 98.5778L155.398 73.7936L155.399 66.571L155.387 65.5251C155.273 60.2964 154.305 55.1177 152.519 50.1969L149.573 42.0739L146.144 35.2174C143.378 29.6845 141.621 23.7016 140.956 17.5514L140.023 8.9313C140.011 8.89732 139.998 8.86282 139.988 8.82779C139.816 8.22654 139.614 7.63235 139.388 7.04654ZM209.545 82.279C206.941 82.279 204.343 82.5603 201.799 83.1169L198.388 83.8629C192.958 85.0509 187.774 87.1736 183.07 90.1354L177.064 93.9157L153.173 112.828L153.174 112.829L153.157 112.842C153.114 112.878 153.068 112.912 153.021 112.942L153.005 112.952L142.028 120.13C144.654 119.392 147.348 118.902 150.077 118.674C153.026 118.429 155.939 117.848 158.757 116.942L164.305 115.158C166.856 114.338 169.335 113.306 171.713 112.073L181.486 107.005L203.09 95.6149C207.154 93.472 211.486 91.8758 215.97 90.8708L219.573 90.0641C223.095 89.2747 226.691 88.8541 230.3 88.8092C224.229 84.569 216.986 82.279 209.545 82.279ZM96.0271 67.3102C96.0291 67.3045 96.0329 67.2987 96.035 67.2926C96.0407 67.2751 96.0438 67.2567 96.0486 67.2399C96.0417 67.2631 96.0353 67.287 96.0271 67.3102ZM96.075 67.2614C96.0798 67.2378 96.0836 67.2179 96.0857 67.2047C96.0881 67.1903 96.0895 67.178 96.0906 67.1696L96.075 67.2614ZM96.4725 60.7614C96.4743 60.7514 96.4785 60.741 96.4803 60.7301C96.4803 60.7274 96.4803 60.7239 96.4803 60.7204H96.4764C96.4751 60.7338 96.4737 60.7477 96.4725 60.7614ZM96.4773 60.7135H96.4803C96.4802 60.7056 96.4806 60.6956 96.4803 60.6842C96.4794 60.6938 96.4782 60.7038 96.4773 60.7135ZM96.8992 57.0544C96.8997 57.0582 96.9 57.0619 96.9002 57.0631C96.9001 57.0621 96.9004 57.0597 96.9002 57.0573C96.8998 57.0539 96.899 57.0478 96.8982 57.0417L96.8992 57.0544ZM99.573 45.0153C99.5754 45.0093 99.5781 45.0052 99.5789 45.0036C99.5807 44.9987 99.5824 44.9938 99.5838 44.9899C99.586 44.9803 99.5887 44.9673 99.5916 44.9528C99.592 44.9508 99.592 44.9479 99.5926 44.945C99.5865 44.9683 99.5803 44.9921 99.573 45.0153ZM99.0262 35.1549C99.0255 35.1581 99.0249 35.1616 99.0242 35.1647C99.0231 35.1699 99.0222 35.1756 99.0213 35.1803C99.023 35.1718 99.0252 35.1628 99.0271 35.154L99.0262 35.1549ZM101.867 29.3161C101.866 29.3179 101.865 29.3199 101.865 29.32C101.865 29.32 101.867 29.3178 101.869 29.3141L101.874 29.3053C101.871 29.3103 101.868 29.3142 101.867 29.3161ZM107.726 26.7575C107.756 26.7332 107.779 26.7131 107.793 26.6999C107.794 26.6985 107.796 26.6964 107.798 26.695C107.775 26.7165 107.751 26.7374 107.726 26.7575ZM108.529 25.6794C108.525 25.6862 108.522 25.6941 108.517 25.7008C108.517 25.7007 108.519 25.6985 108.521 25.695C108.523 25.6918 108.526 25.6855 108.53 25.6784L108.529 25.6794ZM114.607 18.2604L114.61 18.2575C114.609 18.2585 114.608 18.2597 114.607 18.2604ZM117.113 15.8756C117.097 15.8962 117.073 15.9234 117.056 15.943C117.068 15.9368 117.08 15.9316 117.09 15.9264C117.106 15.9063 117.127 15.8845 117.145 15.8581C117.146 15.8571 117.147 15.8554 117.147 15.8542C117.137 15.8605 117.125 15.8685 117.113 15.8756ZM114.015 13.5065C113.986 13.5238 113.961 13.5394 113.946 13.5495C113.941 13.5531 113.934 13.5569 113.929 13.5602C113.923 13.5682 113.915 13.5779 113.907 13.5876C113.894 13.6033 113.874 13.629 113.851 13.6608C113.85 13.6632 113.847 13.666 113.845 13.6686C113.865 13.6519 113.887 13.6347 113.908 13.6169C113.918 13.6064 113.925 13.5986 113.928 13.5963C113.947 13.5768 113.969 13.556 113.987 13.5387C114 13.5263 114.017 13.5116 114.035 13.4958C114.028 13.4999 114.021 13.5035 114.015 13.5065ZM114.01 13.4743C114.011 13.4728 114.013 13.4714 114.014 13.4704C114.015 13.4694 114.016 13.468 114.016 13.4674L114.01 13.4743ZM125.455 9.98795C125.462 9.98797 125.47 9.98896 125.477 9.98892C125.483 9.98886 125.489 9.98718 125.495 9.98697C125.481 9.98726 125.468 9.98803 125.455 9.98795ZM125.599 9.98111C125.603 9.98076 125.607 9.98141 125.611 9.98111C125.614 9.98079 125.618 9.97957 125.621 9.97916C125.614 9.97987 125.606 9.98048 125.599 9.98111ZM130.622 7.72134C130.623 7.72069 130.624 7.71982 130.625 7.71939C130.629 7.71688 130.637 7.71158 130.646 7.70474C130.634 7.71305 130.624 7.7196 130.622 7.72134ZM132.241 7.00357C132.329 6.99631 132.392 6.98587 132.415 6.98111L132.401 6.93521C132.348 6.95793 132.294 6.98086 132.241 7.00357ZM132.619 6.89029C132.632 6.88138 132.657 6.8642 132.686 6.84146C132.692 6.83692 132.702 6.82899 132.715 6.819C132.684 6.84359 132.652 6.86792 132.619 6.89029ZM132.757 6.84732L132.756 6.84927C132.751 6.85193 132.75 6.8532 132.749 6.85416L132.758 6.8483C132.76 6.84656 132.764 6.84408 132.768 6.84146L132.757 6.84732ZM132.755 6.78482C132.748 6.79028 132.742 6.79606 132.735 6.80142C132.742 6.79598 132.749 6.79019 132.757 6.78384L132.755 6.78482ZM133.13 6.62466C133.129 6.62528 133.127 6.62594 133.127 6.62662C133.158 6.6173 133.181 6.6114 133.188 6.60904L133.185 6.60025C133.167 6.60815 133.148 6.61678 133.13 6.62466ZM133.188 6.59927L133.192 6.60806C133.193 6.6081 133.196 6.60727 133.217 6.59634C133.219 6.59507 133.238 6.58325 133.267 6.56607C133.241 6.57722 133.214 6.58811 133.188 6.59927ZM133.998 6.28287C133.992 6.28354 133.963 6.28528 133.917 6.28873C133.893 6.29868 133.87 6.30905 133.846 6.319C133.868 6.31743 133.888 6.31681 133.904 6.31509C133.936 6.3116 133.963 6.30776 133.984 6.30435C134.001 6.30153 134.017 6.29737 134.031 6.29459L134.023 6.27798C134.015 6.27923 134.006 6.28174 133.998 6.28287ZM134.03 6.27603L134.038 6.29263C134.045 6.29109 134.053 6.29008 134.059 6.28873C134.067 6.28138 134.076 6.27361 134.084 6.26627C134.068 6.26932 134.05 6.273 134.03 6.27603ZM131.771 3.18521L131.774 3.18423C131.778 3.18144 131.783 3.17835 131.788 3.17545C131.783 3.17866 131.777 3.18175 131.771 3.18521ZM136.351 1.24771C136.343 1.25324 136.329 1.26226 136.313 1.2731C136.337 1.26183 136.36 1.24975 136.382 1.2399C136.389 1.23517 136.396 1.23029 136.402 1.22623L136.399 1.21939C136.388 1.22555 136.371 1.2353 136.351 1.24771Z" fill="#F8F5F2"/>
</svg>
